# Blender v2.80 (sub 75) OBJ File: 'font.blend'
# www.blender.org
o Plane.003_Plane.006
v 0.278428 0.100000 1.035911
v 0.989227 0.100000 0.820445
v 0.677039 0.100000 -1.380656
v 1.186737 0.100000 -0.475701
v 1.219315 0.100000 -1.069646
v 0.770780 0.100000 -1.084805
v 1.298680 0.100000 -1.059599
v 1.327261 0.100000 -0.508539
v 1.340008 0.100000 -1.043847
v 1.370149 0.100000 -1.026820
v 1.395113 0.100000 -1.009286
v 1.416427 0.100000 -0.991423
v 1.434849 0.100000 -0.973317
v 1.450832 0.100000 -0.955017
v 1.464676 0.100000 -0.936555
v 1.476590 0.100000 -0.917955
v 1.486727 0.100000 -0.899233
v 1.495199 0.100000 -0.880400
v 1.502089 0.100000 -0.861468
v 1.507458 0.100000 -0.842444
v 1.511348 0.100000 -0.823334
v 1.513786 0.100000 -0.804144
v 1.514785 0.100000 -0.784877
v 1.514345 0.100000 -0.765537
v 1.512453 0.100000 -0.746127
v 1.509081 0.100000 -0.726650
v 1.504187 0.100000 -0.707106
v 1.497709 0.100000 -0.687499
v 1.489563 0.100000 -0.667828
v 1.479637 0.100000 -0.648095
v 1.467777 0.100000 -0.628300
v 1.453773 0.100000 -0.608445
v 1.437323 0.100000 -0.588530
v 1.417971 0.100000 -0.568558
v 1.394955 0.100000 -0.548535
v 1.366737 0.100000 -0.528482
v 1.383334 0.100000 -0.210475
v 1.383290 0.100000 -0.223328
v 1.197979 0.100000 -0.472291
v 1.376827 0.100000 -0.275177
v 1.358221 0.100000 -0.327309
v 1.328740 0.100000 -0.376172
v 1.290393 0.100000 -0.418436
v 1.245793 0.100000 -0.451220
v 0.596160 0.100000 0.052327
v 0.470691 0.100000 0.250612
v 0.620992 0.100000 -0.055860
v 0.702350 0.100000 -0.473131
v 0.943753 0.100000 -0.457051
v 1.005414 0.100000 -0.426198
v 1.059688 0.100000 -0.387958
v 1.069641 0.100000 -0.315246
v 1.155924 0.100000 -0.343486
v 1.232358 0.100000 -0.317557
v 1.266934 0.100000 -0.195601
v 1.313821 0.100000 -0.199219
v 0.949517 0.100000 0.410258
v 1.151524 0.100000 0.143182
v 1.013744 0.100000 0.484276
v 0.469303 0.100000 0.738635
v 0.380408 0.100000 0.425053
v 0.485120 0.100000 0.337309
v 0.338685 0.100000 0.665681
v 0.915901 0.100000 -0.592426
v 0.712945 0.100000 -0.597376
v 0.767397 0.100000 -0.953787
v 0.852787 0.100000 -0.953787
v 0.886200 0.100000 -0.873347
v 0.972828 0.100000 -0.956262
v 1.131233 0.100000 -0.955024
v 1.289638 0.100000 -0.971112
v 1.295825 0.100000 -0.905523
v 1.404729 0.100000 -0.875822
v 1.325526 0.100000 -0.677816
v 1.292113 0.100000 -0.643165
v 1.240136 0.100000 -0.613464
v 1.230236 0.100000 -0.697617
v -0.553879 0.050000 0.953900
v 0.005823 0.050000 -0.289482
v 0.203376 0.050000 -1.368723
v 0.874095 0.050000 0.789872
v 0.143715 0.050000 -1.188766
v 0.167505 0.050000 -1.127257
v 0.072849 0.050000 -1.001140
v -0.177943 0.050000 -0.312398
v -0.329132 0.050000 -0.062450
v -0.259578 0.050000 -0.087084
v -0.569593 0.050000 0.747024
v 0.404913 0.050000 -0.729658
v 0.398752 0.050000 -0.580159
v 0.327984 0.050000 -0.998669
v 0.359200 0.050000 -0.288201
v -0.403930 0.050000 0.590527
v -0.130150 0.050000 0.194851
v -0.319391 0.050000 0.396794
v -0.099450 0.050000 -0.025802
v 0.010119 0.050000 -0.101133
v -0.049906 0.050000 -0.136084
v 0.324746 0.050000 -0.394258
v 0.036704 0.050000 -0.396950
v 0.160536 0.050000 -0.738832
v 0.176687 0.050000 -0.808823
v 0.254755 0.050000 -0.843819
v 0.235911 0.050000 -0.660764
vt 0.250000 0.000000
vt 0.336583 0.487253
vt 0.175713 0.613506
vt 0.259566 0.912061
vt 0.285805 0.860206
vt 0.351461 0.922690
vt 1.000000 0.000000
vt 1.000000 0.500000
vt 0.753005 0.685537
vt 0.250000 1.000000
vt 0.000000 1.000000
vt 0.000000 0.750000
vt 0.000000 0.250000
vt 0.000000 0.000000
vt 0.031250 0.000000
vt 0.125000 0.000000
vt 0.187500 0.000000
vt 0.000000 0.500000
vt 0.000000 1.000000
vt 0.000000 0.750000
vt 0.695857 0.840786
vt 0.606896 0.849197
vt 0.062500 0.000000
vt 0.606400 0.975530
vt 0.580286 0.956915
vt 0.618829 0.974357
vt 0.693919 0.911339
vt 0.709342 0.973378
vt 0.660514 0.972551
vt 0.675963 0.972532
vt 0.631973 0.973466
vt 0.645859 0.972863
vt 0.692232 0.972807
vt 0.727314 0.974244
vt 0.765922 0.976856
vt 0.746169 0.975404
vt 0.808165 0.980611
vt 0.786585 0.978594
vt 0.854054 0.985438
vt 0.830660 0.982898
vt 0.903332 0.991170
vt 0.878307 0.988208
vt 0.954739 0.997353
vt 0.928952 0.994261
vt 0.709167 0.890768
vt 1.000000 1.000000
vt 0.978837 1.000000
vt 0.988337 0.867637
vt 1.000000 0.980869
vt 0.562500 0.000000
vt 0.949588 0.595129
vt 0.960527 0.718326
vt 0.625000 0.000000
vt 0.992759 0.437249
vt 0.971916 0.516456
vt 1.000000 0.333333
vt 1.000000 0.354150
vt 0.750000 0.000000
vt 0.937500 0.000000
vt 1.000000 0.000000
vt 0.875000 0.000000
vt 0.812500 0.000000
vt 0.687500 0.000000
vt 0.437500 0.000000
vt 0.500000 0.000000
vt 0.375000 0.000000
vt 0.312500 0.000000
vt 0.250000 1.000000
vt 0.178353 0.908455
vt 0.512192 1.000000
vt 0.500000 1.000000
vt 0.517004 0.964338
vt 0.528550 0.994090
vt 0.520635 0.997220
vt 0.545032 0.988117
vt 0.536622 0.991025
vt 0.533810 0.943022
vt 0.563213 0.982928
vt 0.553875 0.985410
vt 0.583566 0.978702
vt 0.573097 0.980688
vt 0.594656 0.976980
vt 0.450673 0.937949
vt 0.000000 0.125000
vt 0.000000 0.000000
vt 0.142857 0.000000
vt 0.285714 0.000000
vt 0.428571 0.000000
vt 0.571429 0.000000
vt 0.714286 0.000000
vt 0.857143 0.000000
vt 0.000000 0.250000
vt 0.000000 0.500000
vt 0.000000 0.375000
vt 0.501498 0.409958
vt 1.000000 1.000000
vt 0.750000 1.000000
vt 0.500000 1.000000
vt 0.000000 0.625000
vt 0.242731 0.725805
vt 0.213435 0.757055
vt 0.263659 0.862823
vt 0.381410 0.783949
vt 0.000000 0.875000
vn 0.0000 1.0000 0.0000
s off
f 48/1/1 64/2/1 65/3/1
f 67/4/1 68/5/1 69/6/1
f 79/7/1 92/8/1 99/9/1
f 91/10/1 80/11/1 83/12/1
f 63/13/1 1/14/1 60/15/1
f 46/16/1 47/17/1 48/1/1
f 62/18/1 63/13/1 60/15/1
f 65/3/1 3/19/1 46/16/1
f 3/19/1 61/20/1 46/16/1
f 76/21/1 77/22/1 64/2/1
f 62/18/1 60/15/1 45/23/1
f 62/18/1 45/23/1 46/16/1
f 18/24/1 73/25/1 19/26/1
f 73/25/1 74/27/1 25/28/1
f 22/29/1 73/25/1 23/30/1
f 20/31/1 19/26/1 73/25/1
f 22/29/1 21/32/1 73/25/1
f 21/32/1 20/31/1 73/25/1
f 24/33/1 23/30/1 73/25/1
f 26/34/1 25/28/1 74/27/1
f 25/28/1 24/33/1 73/25/1
f 28/35/1 27/36/1 74/27/1
f 27/36/1 26/34/1 74/27/1
f 30/37/1 29/38/1 74/27/1
f 29/38/1 28/35/1 74/27/1
f 32/39/1 31/40/1 74/27/1
f 31/40/1 30/37/1 74/27/1
f 34/41/1 33/42/1 74/27/1
f 33/42/1 32/39/1 74/27/1
f 36/43/1 35/44/1 75/45/1
f 35/44/1 34/41/1 74/27/1
f 75/45/1 35/44/1 74/27/1
f 4/46/1 8/47/1 76/21/1
f 8/47/1 36/43/1 75/45/1
f 44/48/1 39/49/1 53/50/1
f 39/49/1 4/46/1 53/50/1
f 42/51/1 43/52/1 54/53/1
f 43/52/1 44/48/1 54/53/1
f 40/54/1 41/55/1 54/53/1
f 41/55/1 42/51/1 54/53/1
f 37/56/1 38/57/1 56/58/1
f 38/57/1 40/54/1 56/58/1
f 59/59/1 2/60/1 58/61/1
f 2/60/1 37/56/1 58/61/1
f 56/58/1 57/62/1 58/61/1
f 54/53/1 44/48/1 53/50/1
f 8/47/1 75/45/1 76/21/1
f 40/54/1 54/53/1 56/58/1
f 56/58/1 58/61/1 37/56/1
f 54/53/1 55/63/1 56/58/1
f 51/64/1 52/65/1 53/50/1
f 51/64/1 53/50/1 4/46/1
f 50/66/1 51/64/1 4/46/1
f 49/67/1 50/66/1 64/2/1
f 50/66/1 4/46/1 64/2/1
f 4/46/1 76/21/1 64/2/1
f 48/1/1 49/67/1 64/2/1
f 61/20/1 62/18/1 46/16/1
f 46/16/1 48/1/1 65/3/1
f 6/68/1 3/19/1 66/69/1
f 3/19/1 65/3/1 66/69/1
f 7/70/1 5/71/1 71/72/1
f 5/71/1 6/68/1 69/6/1
f 69/6/1 6/68/1 67/4/1
f 10/73/1 9/74/1 71/72/1
f 9/74/1 7/70/1 71/72/1
f 12/75/1 11/76/1 72/77/1
f 11/76/1 10/73/1 71/72/1
f 14/78/1 13/79/1 73/25/1
f 13/79/1 12/75/1 73/25/1
f 16/80/1 15/81/1 73/25/1
f 15/81/1 14/78/1 73/25/1
f 18/24/1 17/82/1 73/25/1
f 17/82/1 16/80/1 73/25/1
f 72/77/1 73/25/1 12/75/1
f 69/6/1 70/83/1 5/71/1
f 70/83/1 71/72/1 5/71/1
f 71/72/1 72/77/1 11/76/1
f 6/68/1 66/69/1 67/4/1
f 88/84/1 78/85/1 93/86/1
f 93/86/1 94/87/1 95/88/1
f 96/89/1 97/90/1 98/91/1
f 88/84/1 93/86/1 95/88/1
f 95/88/1 96/89/1 87/92/1
f 96/89/1 98/91/1 87/92/1
f 98/91/1 79/7/1 85/93/1
f 87/92/1 88/84/1 95/88/1
f 85/93/1 86/94/1 87/92/1
f 99/9/1 100/95/1 79/7/1
f 100/95/1 85/93/1 79/7/1
f 81/96/1 89/97/1 90/98/1
f 81/96/1 90/98/1 92/8/1
f 90/98/1 99/9/1 92/8/1
f 85/93/1 87/92/1 98/91/1
f 84/99/1 85/93/1 101/100/1
f 85/93/1 100/95/1 101/100/1
f 101/100/1 102/101/1 84/99/1
f 103/102/1 104/103/1 90/98/1
f 104/103/1 99/9/1 90/98/1
f 84/99/1 102/101/1 103/102/1
f 80/11/1 82/104/1 83/12/1
f 83/12/1 84/99/1 91/10/1
f 84/99/1 103/102/1 91/10/1
f 103/102/1 90/98/1 91/10/1
